<svg id="Layer_1" data-name="Layer 1" xmlns="http://www.w3.org/2000/svg" viewBox="0 0 60.4 83.99"><title>Hunid Capital logo</title><path d="M338.69,225.59c7.77-2.22,17.38,3.46,18.63,11.77a42.67,42.67,0,0,1-.56,14.42c-2.37,11.88-8,22.47-14.24,33-9.21-4.48-17.54-9.56-22.26-18.85-.93-1.82-1.15-4-1.7-6l-.1.11c12.91-5.33,21.41-19.8,20.33-34.6Z" transform="translate(-297.31 -200.82)"/><path d="M318.57,259.95c-13.61,3.15-23.72-7.23-20.74-21.36,2-9.7,6.81-18.2,12.17-26.38,2.45-3.75,5.15-7.33,8-11.38,9.52,6.43,18.12,13,20.68,24.76l.1-.13c-1.87.55-3.92.78-5.58,1.7-9.49,5.22-17,22.25-14.74,32.89Z" transform="translate(-297.31 -200.82)"/><path d="M335.54,230c3,8.22-5.55,23.19-14.32,25.17C319.23,245,327,231.24,335.54,230Z" transform="translate(-297.31 -200.82)"/></svg>