<svg id="Layer_1" data-name="Layer 1" xmlns="http://www.w3.org/2000/svg" viewBox="0 0 351.02 78.24"><defs><style>.cls-1{fill:#fff;}</style></defs><title>hunid capital wording</title><path d="M303.61,216.37c0-4.1-.12-7.71,0-11.31.22-5.44,3.77-8.67,9.7-8.54,0,1.31,0,2.63,0,4,0,13.25.05,26.5-.06,39.75,0,1.63-.57,4.42-1.42,4.65-2.41.65-5.3.85-6.95-2a12.67,12.67,0,0,0-.86-1.18c-6.89,5.62-14.71,5.58-20.32,0-5.8-5.8-6.07-17.11-.58-23.8C288,211.94,295.73,211.21,303.61,216.37Zm.73,13.15c.05-5-3-8.15-7.71-8.14s-7.59,3-7.65,7.82c-.06,5,2.82,8.06,7.71,8S304.3,234.34,304.35,229.52Z" transform="translate(-153.35 -189.54)"/><path d="M180.88,245.75v-23c-5.52,0-10.6-.14-15.66.15-.78,0-2,2-2.07,3.11-.22,5.23-.1,10.47-.1,15.71,0,1.22,0,2.43,0,3.57-5.15,1-9.32-1.32-9.48-5.62-.33-8.81-.1-17.64-.1-26.91,11.22.12,22.13.18,32.53,4.38a6.78,6.78,0,0,1,4.62,7.3c-.19,3.61,0,7.23,0,10.85C190.51,241.63,188.12,244.37,180.88,245.75Z" transform="translate(-153.35 -189.54)"/><path d="M225,215.51c0,9.34.06,18.42,0,27.51,0,2.18-4.13,3.13-6.65,1.5a15.14,15.14,0,0,1-2.41-2.56,11.86,11.86,0,0,1-11.3,3.73c-4.12-.79-7.13-3.13-7.48-7.28-.59-6.94-.6-13.94-.62-20.91,0-.72,1.47-1.93,2.38-2.07,3.7-.58,6.46,1.91,6.61,5.81.15,3.74,0,7.49.23,11.23.16,3,1.29,5.42,4.94,5.27,3.43-.13,4.85-2.33,5.05-5.38s.09-6,.11-9C215.83,217.28,218.1,215.18,225,215.51Z" transform="translate(-153.35 -189.54)"/><path d="M259,245.56c-6,.72-8.81-1.65-8.9-7.29-.05-3.24.05-6.5-.17-9.73-.2-2.86-1.38-5.09-4.79-5.06-3.23,0-4.84,1.94-5.14,4.86s-.18,6-.24,9c-.12,5.61-2.94,8.37-8.88,8.42V216.17c3.47-.15,6.92-1,8.49,2.61,2.63-1.22,4.86-2.77,7.3-3.27,6.62-1.35,11.67,2.28,12.22,9.27C259.47,231.58,259,238.46,259,245.56Z" transform="translate(-153.35 -189.54)"/><path d="M362.29,234.29l3.53,2.44c-2.72,6.55-12.4,10.55-21.59,9.08a24.28,24.28,0,0,1-20.52-21.33c-1.26-12.8,4.82-23.29,15.79-27.21,9.84-3.52,20.52-.87,25.39,6.42l-4.07,3.11c-4.21-4.61-9.3-6.91-15.63-5.91a17.94,17.94,0,0,0-11.44,6.5c-6.82,8.29-5.93,21.95,1.85,29S353.65,242.74,362.29,234.29Z" transform="translate(-153.35 -189.54)"/><path d="M402,215l4.85,3.83c3.5-3.06,8.12-4.75,13-3.3a19.46,19.46,0,0,1,8.45,5c4.83,5.2,4.43,13.88-.24,19.27-5.14,5.94-12.76,6.37-21.46,1.32-.7,3.77-1.34,7.62-2.2,11.41-.14.61-1.25,1-2.42,1.87Zm14.13,25.7c6.11.25,10.55-4,10.77-10.36s-4-11.07-9.94-11.26a10.86,10.86,0,0,0-11.21,10.61A10.7,10.7,0,0,0,416.08,240.75Z" transform="translate(-153.35 -189.54)"/><path d="M389.52,242.37c-2.92,3.37-7,4.23-11.6,3.5a8.72,8.72,0,0,1-7.57-7.23c-.6-4.07,1.14-7.84,5.36-9.21,4.42-1.44,9.17-1.9,14.72-3-.84-1.69-1.28-4.39-2.83-5.39-4.57-3-9-1.16-13.28,1.77-1.9-2.36-1.42-4.4.94-5.52,4.67-2.22,9.63-2.78,14.43-.42,3.46,1.7,4.83,4.91,4.91,8.65.11,5.36.28,10.72.09,16.07,0,1.24-1.41,2.44-2.16,3.66Zm.32-11.89c-4.15.82-8.07,1.27-11.73,2.5a5.14,5.14,0,0,0-2.63,4.21,6.22,6.22,0,0,0,3.34,4.2C385.23,243.91,390.4,239.22,389.85,230.48Z" transform="translate(-153.35 -189.54)"/><path d="M489,227.16c-.3-8.6-6.08-10.09-15.79-4.78-1.68-2.35-1.12-4.42,1.29-5.53a16.56,16.56,0,0,1,13.81-.54,8.09,8.09,0,0,1,5.16,7.27c.31,6.11.44,12.23.29,18.34,0,1.2-1.72,2.35-3.23,4.26l-1.34-4.59c-3.55,3.54-7.74,4.93-12.63,3.78-4.21-1-6.85-3.77-7.18-7.58a8.26,8.26,0,0,1,5.5-8.86,39,39,0,0,1,8.36-1.75A43.6,43.6,0,0,1,489,227.16Zm-.16,3.17c-3.92.66-7.7.88-11.13,2.07-1.48.52-3.35,3.27-3.08,4.62a6.79,6.79,0,0,0,4.22,4.26C485.12,243,489.55,238.37,488.8,230.33Z" transform="translate(-153.35 -189.54)"/><path d="M452.56,220c-2.73-1-6.91.72-6.17-4.55l6-.47.36-8c6.18.15,3.73,4.88,4.6,7.63,2.24,2.33,8.11-2.22,8.27,4.77h-8.29c0,6.71-.19,13,.18,19.32.07,1.11,2.35,2.44,3.86,3,1.09.41,2.6-.25,4.72.35-1,1.25-1.83,3-3.16,3.66-2.74,1.42-7.35.22-8.75-2.3a13.7,13.7,0,0,1-1.54-6C452.43,231.67,452.56,225.94,452.56,220Z" transform="translate(-153.35 -189.54)"/><path d="M265.05,230.76c0-4,.11-8,0-12-.12-3.77,2.54-2.94,4.64-3s4.64-.61,4.58,3.08c-.13,7.85-.09,15.71,0,23.57,0,4.05-2.91,2.82-5,3s-4.32.24-4.18-3.09C265.18,238.49,265,234.62,265.05,230.76Z" transform="translate(-153.35 -189.54)"/><path d="M190.29,217.26c-5.64-5.21-12.46-5.67-19-7.38,1.82,0,3.66-.14,5.47,0,2.86.28,4.17-.62,3.86-3.72a47.27,47.27,0,0,1,0-7.48c.31-5.31,3.89-8.73,9.67-9.18Z" transform="translate(-153.35 -189.54)"/><path d="M499.87,245.7c0-15.13,0-29.73.09-44.33,0-.8,1.26-1.59,1.94-2.38.82.79,2.36,1.57,2.36,2.36.15,14,.08,28,.12,41.94C504.38,246.72,502.24,245.78,499.87,245.7Z" transform="translate(-153.35 -189.54)"/><path d="M153.35,189.75c9.87.61,10.58,8.37,9.26,19.93h-9.26V189.75Z" transform="translate(-153.35 -189.54)"/><path d="M436.9,216.87h4.47c0,4.34,0,8.55,0,12.75,0,4.62.1,9.25-.1,13.87a3.05,3.05,0,0,1-2,2.2,3,3,0,0,1-2.24-1.92C436.85,234.92,436.9,226.07,436.9,216.87Z" transform="translate(-153.35 -189.54)"/><path d="M431.87,266.55v-10c2,0,3.87-.35,5.55.12a4.45,4.45,0,0,1,2.78,2.75c.43,2.31.13,4.76.13,8.3l-5-5.05-2.14,4.53Z" transform="translate(-153.35 -189.54)"/><path d="M222.66,263.49a9,9,0,0,1-.19,2.17c-.16.47-.72.81-1.1,1.2-.44-.46-1.25-.91-1.27-1.39-.12-2.84-.06-5.68-.06-8.88,2.16,0,4.06-.31,5.79.12a4,4,0,0,1,2.6,2.55,18.4,18.4,0,0,1-.69,7.87l-3.83-4.4Z" transform="translate(-153.35 -189.54)"/><path d="M297.83,258.47l-4.8.7-.06.7,4.63,1.19,0,1-4.73,1.08,0,1,5.24,1,0,1.33-7.82.61V256.46l7.68.45Z" transform="translate(-153.35 -189.54)"/><path d="M180.58,263.08l5.67,1.79.45-1.18c-1.26-.51-2.74-.77-3.73-1.61s-2-2.82-1.7-3.11a7.18,7.18,0,0,1,4-2.41c1.1-.1,2.35,1.32,3.53,2.06l-1.2,1.51c.57,1.6,1.78,3.29,1.42,4.51s-2.3,2.11-3.69,2.34C183.07,267.35,181.15,266.45,180.58,263.08Z" transform="translate(-153.35 -189.54)"/><path d="M380,265.17c-2.88,2.83-5.72,1.29-8.49,1.76V256.86c5.83-.77,6.36-.67,7.64,1.57l-5,.71-.13.65,4.71,1.43-.15.93-4.6.93-.07,1.07Z" transform="translate(-153.35 -189.54)"/><path d="M413.33,256.27l7.48.83-.14,1.3-4.71.81,0,.68,4.62,1.16-.07,1-4.72,1.17v1l5.15.75c-1.14,2.24-1.14,2.24-7.6,1.73Z" transform="translate(-153.35 -189.54)"/><path d="M315,263.07l5.59,1.8c-.94-3.13-6.76-1.93-4.7-6.66.43-1,2.7-1.74,4.06-1.65s2.39,1.45,3.58,2.25l-.67,1.09-4.51-1.27c1.33,2.67,6.2,1.59,5.15,5.8-.28,1.13-2.45,2.26-3.91,2.53C317.34,267.36,315.43,266.41,315,263.07Z" transform="translate(-153.35 -189.54)"/><path d="M401.41,260l-5.3-1.76c2.1,3.16,7.36,1.95,6,6.41-.32,1.08-2.34,2.08-3.71,2.33-2.23.4-4.15-.47-4.84-3.83l6.46,2c-1.56-3.42-7.46-2.15-5.53-6.81.42-1,2.65-1.81,4-1.74s2.49,1.39,3.73,2.17Z" transform="translate(-153.35 -189.54)"/><path d="M199.48,260.69,201,256.6c.48,1.42,1,2.83,1.41,4.28.19.7-.17,1.64.17,2.19a3.81,3.81,0,0,0,2.07,1.55c.3.08,1.25-1.06,1.35-1.73.22-1.46,0-3,.16-4.47.09-.66.8-1.24,1.23-1.85.48.56,1.26,1.08,1.36,1.7a24.19,24.19,0,0,1,.07,4.1c0,3-1.37,4.71-4.52,4.7s-4.5-1.69-4.41-4.72c0-.5,0-1,0-1.49Z" transform="translate(-153.35 -189.54)"/><path d="M342.91,267.42c-3-2.51-6-3.91-9,.36l-.52-1.24c1.07-2.93,2.09-5.89,3.27-8.78a2.08,2.08,0,0,1,1.6-1.13,2.74,2.74,0,0,1,1.85,1.34c1.15,2.72,2.1,5.52,3.12,8.3Z" transform="translate(-153.35 -189.54)"/><path d="M476.81,262.28l-4.44.72-.1,1.06,5.91,1.16c-2.66,2.81-5.46,1.25-8.21,1.72V256.79h7.36l.29,1.23-6.08,1.54,5.53,1.58Z" transform="translate(-153.35 -189.54)"/><path d="M243,261.81c2-1.18.2-5.48,4.7-5.13-1,2.93-1.71,5.63-2.75,8.21a3.65,3.65,0,0,1-2.17,1.88c-.41.11-1.46-1.06-1.76-1.83-1-2.53-1.72-5.15-2.56-7.74C240.47,256.74,240.47,256.74,243,261.81Z" transform="translate(-153.35 -189.54)"/><path d="M270.59,256.7c4.6-.46,2.66,4.1,4.69,5l3.15-5.62,1.5.73c-1,3-1.88,6-3,8.9a2,2,0,0,1-1.62,1.08,2.63,2.63,0,0,1-1.83-1.3C272.46,262.77,271.63,259.92,270.59,256.7Z" transform="translate(-153.35 -189.54)"/><path d="M351.73,256.38c4.23.37,3.1,3.93,4.62,5.44,2.18-1,.32-5.57,4.84-5.14-1,3.09-1.88,6-3,8.85a2.38,2.38,0,0,1-1.84,1.27,2.56,2.56,0,0,1-1.75-1.47C353.64,262.66,352.85,259.92,351.73,256.38Z" transform="translate(-153.35 -189.54)"/><path d="M451.73,256.17l3.09,5.51c2.14-.71.1-5.84,4.68-4.85-1,3-1.86,5.83-2.91,8.59a1.87,1.87,0,0,1-3.6,0c-1-2.77-1.84-5.61-2.73-8.43Z" transform="translate(-153.35 -189.54)"/><path d="M270.58,204.42c1,1.47,2.57,2.85,2.8,4.42a3.13,3.13,0,0,1-3.9,3.66,5.39,5.39,0,0,1-3.33-3.85c-.09-1.36,1.81-2.84,2.84-4.27Z" transform="translate(-153.35 -189.54)"/><path d="M261.36,261.89l-2.39,5c-.39-1.66-1.09-3.32-1.07-5a26.59,26.59,0,0,1,1.09-5.32Z" transform="translate(-153.35 -189.54)"/><path class="cls-1" d="M443,210.35c-1.9,1.46-3.1,3-3.92,2.86-1.16-.25-2-1.79-3-2.78.94-.93,1.79-2.46,2.84-2.6S441,209.06,443,210.35Z" transform="translate(-153.35 -189.54)"/></svg>